<svg width="40" height="40" viewBox="0 0 40 40" fill="none" xmlns="http://www.w3.org/2000/svg">
<circle cx="20" cy="20" r="20" fill="#737373"/>
<path d="M19.5082 14.1176C16.527 14.1176 14.1223 16.5223 14.1223 19.5035C14.1223 22.4848 16.527 24.8895 19.5082 24.8895C22.4895 24.8895 24.8941 22.4848 24.8941 19.5035C24.8941 16.5223 22.4895 14.1176 19.5082 14.1176ZM19.5082 23.0051C17.5816 23.0051 16.0066 21.4348 16.0066 19.5035C16.0066 17.5723 17.577 16.002 19.5082 16.002C21.4395 16.002 23.0098 17.5723 23.0098 19.5035C23.0098 21.4348 21.4348 23.0051 19.5082 23.0051ZM26.3707 13.8973C26.3707 14.5957 25.8082 15.1535 25.1145 15.1535C24.416 15.1535 23.8582 14.591 23.8582 13.8973C23.8582 13.2035 24.4207 12.641 25.1145 12.641C25.8082 12.641 26.3707 13.2035 26.3707 13.8973ZM29.9379 15.1723C29.8582 13.4895 29.4738 11.9988 28.241 10.7707C27.0129 9.54258 25.5223 9.1582 23.8395 9.07383C22.1051 8.97539 16.9066 8.97539 15.1723 9.07383C13.4941 9.15352 12.0035 9.53789 10.7707 10.766C9.53789 11.9941 9.1582 13.4848 9.07383 15.1676C8.97539 16.902 8.97539 22.1004 9.07383 23.8348C9.15352 25.5176 9.53789 27.0082 10.7707 28.2363C12.0035 29.4645 13.4895 29.8488 15.1723 29.9332C16.9066 30.0316 22.1051 30.0316 23.8395 29.9332C25.5223 29.8535 27.0129 29.4691 28.241 28.2363C29.4691 27.0082 29.8535 25.5176 29.9379 23.8348C30.0363 22.1004 30.0363 16.9066 29.9379 15.1723ZM27.6973 25.6957C27.3316 26.6145 26.6238 27.3223 25.7004 27.6926C24.3176 28.241 21.0363 28.1145 19.5082 28.1145C17.9801 28.1145 14.6941 28.2363 13.316 27.6926C12.3973 27.327 11.6895 26.6191 11.3191 25.6957C10.7707 24.3129 10.8973 21.0316 10.8973 19.5035C10.8973 17.9754 10.7754 14.6895 11.3191 13.3113C11.6848 12.3926 12.3926 11.6848 13.316 11.3145C14.6988 10.766 17.9801 10.8926 19.5082 10.8926C21.0363 10.8926 24.3223 10.7707 25.7004 11.3145C26.6191 11.6801 27.327 12.3879 27.6973 13.3113C28.2457 14.6941 28.1191 17.9754 28.1191 19.5035C28.1191 21.0316 28.2457 24.3176 27.6973 25.6957Z" fill="white"/>
</svg>
