<svg width="40" height="40" viewBox="0 0 40 40" fill="none" xmlns="http://www.w3.org/2000/svg">
<circle cx="20" cy="20" r="20" fill="#737373"/>
<path d="M14.7016 30H10.3469V15.9797H14.7016V30ZM12.5219 14.0672C11.1297 14.0672 10 12.9141 10 11.5219C10 10.853 10.2657 10.2116 10.7386 9.73864C11.2116 9.2657 11.853 9 12.5219 9C13.1907 9 13.8322 9.2657 14.3051 9.73864C14.7781 10.2116 15.0437 10.853 15.0437 11.5219C15.0437 12.9141 13.9141 14.0672 12.5219 14.0672ZM30.9953 30H26.65V23.175C26.65 21.5484 26.6172 19.4625 24.3859 19.4625C22.1219 19.4625 21.775 21.2297 21.775 23.0578V30H17.425V15.9797H21.6016V17.8922H21.6625C22.2438 16.7906 23.6641 15.6281 25.7828 15.6281C30.1891 15.6281 31 18.5297 31 22.2984V30H30.9953Z" fill="white"/>
</svg>
