<svg width="40" height="40" viewBox="0 0 40 40" fill="none" xmlns="http://www.w3.org/2000/svg">
<circle cx="20" cy="20" r="20" fill="#525252"/>
<path d="M32.0687 13.8172C31.7734 12.7062 30.9062 11.8344 29.8047 11.5391C27.8078 11 19.8016 11 19.8016 11C19.8016 11 11.7953 11 9.79844 11.5391C8.69687 11.8344 7.82969 12.7062 7.53437 13.8172C7 15.8281 7 20.0187 7 20.0187C7 20.0187 7 24.2094 7.53437 26.2203C7.82969 27.3313 8.69687 28.1656 9.79844 28.4609C11.7953 29 19.8016 29 19.8016 29C19.8016 29 27.8078 29 29.8047 28.4609C30.9062 28.1656 31.7734 27.3266 32.0687 26.2203C32.6031 24.2094 32.6031 20.0187 32.6031 20.0187C32.6031 20.0187 32.6031 15.8281 32.0687 13.8172ZM17.1859 23.825V16.2125L23.875 20.0187L17.1859 23.825Z" fill="white"/>
</svg>
