<svg width="142" height="142" viewBox="0 0 142 142" fill="none" xmlns="http://www.w3.org/2000/svg">
<g clip-path="url(#clip0)">
<path fill-rule="evenodd" clip-rule="evenodd" d="M71.1123 69.7741C74.7737 69.7741 77.8487 67.2634 78.7091 63.87H107.751V59.3522H78.5122C77.4436 56.2955 74.534 54.1028 71.1123 54.1028C67.6906 54.1028 64.781 56.2955 63.7124 59.3522H33.949V63.87H63.5155C64.3759 67.2634 67.4508 69.7741 71.1123 69.7741ZM71.1123 65.2562C72.9449 65.2562 74.4306 63.7708 74.4306 61.9385C74.4306 60.106 72.9449 58.6206 71.1123 58.6206C69.2796 58.6206 67.794 60.106 67.794 61.9385C67.794 63.7708 69.2796 65.2562 71.1123 65.2562Z" fill="white"/>
<path d="M62.0377 81.9415H47.1831L38.4675 106.037H104.739L96.0231 81.9415H81.1685L83.7773 86.4593H92.8524L98.2996 101.519H44.9066L50.3538 86.4593H59.4289L62.0377 81.9415Z" fill="white"/>
<path fill-rule="evenodd" clip-rule="evenodd" d="M71.6031 65.3759L53.3419 97.001H89.8644L71.6031 65.3759ZM71.6031 74.4117L61.1681 92.4831H82.0381L71.6031 74.4117Z" fill="white"/>
<path fill-rule="evenodd" clip-rule="evenodd" d="M52.0386 50.3165V41.2808H43.0017V50.3165H52.0386ZM56.5571 36.7629L38.4832 36.7629V54.8343H56.5571V36.7629Z" fill="white"/>
<path d="M56.5728 36.7629V54.8656L38.4675 54.8657L56.5728 36.7629Z" fill="white"/>
<path fill-rule="evenodd" clip-rule="evenodd" d="M98.7297 50.3165V41.2808H89.6928V50.3165H98.7297ZM103.248 36.7629L85.1743 36.7629V54.8343H103.248V36.7629Z" fill="white"/>
<path d="M103.264 36.7629V54.8656L85.1585 54.8657L103.264 36.7629Z" fill="white"/>
<path d="M70.6505 141.7C31.7548 141.7 0.0398865 109.99 0.0398865 71.0993C0.0398865 32.2091 31.7548 0.398865 70.6505 0.398865C109.546 0.398865 141.361 32.1094 141.361 71.0993C141.361 110.089 109.546 141.7 70.6505 141.7ZM70.6505 8.37635C36.1431 8.37635 8.01849 36.497 8.01849 71.0993C8.01849 105.702 36.1431 133.723 70.6505 133.723C105.158 133.723 133.283 105.602 133.283 71.0993C133.283 36.5967 105.158 8.37635 70.6505 8.37635Z" fill="white"/>
</g>
<defs>
<clipPath id="clip0">
<rect width="141.7" height="141.7" fill="white"/>
</clipPath>
</defs>
</svg>
