<?xml version="1.0" encoding="utf-8"?>
<!-- Generator: Adobe Illustrator 26.2.1, SVG Export Plug-In . SVG Version: 6.00 Build 0)  -->
<svg version="1.1" id="Ebene_2_00000142864818006635185770000009905315940420026296_"
	 xmlns="http://www.w3.org/2000/svg" xmlns:xlink="http://www.w3.org/1999/xlink" x="0px" y="0px" viewBox="0 0 142.2 141.7"
	 style="enable-background:new 0 0 142.2 141.7;" xml:space="preserve">
<style type="text/css">
	.st0{fill:#FFFFFF;}
</style>
<g id="a">
	<path class="st0" d="M71.2,0C32.1,0,0.3,31.9,0.3,70.9s31.8,70.8,70.9,70.8s70.9-31.7,70.9-70.8S110.3,0,71.2,0z M71.1,133.7
		c-34.6,0-62.8-28.1-62.8-62.8S36.5,8,71.2,8s62.7,28.3,62.7,62.9S105.7,133.7,71.1,133.7z"/>
	<path class="st0" d="M49.2,56.5h43.2l0.8,1.2h6.4V37.2h-6.4l-0.8,1.3H49.2l-0.8-1.2H42v20.4h6.4C48.4,57.7,49.2,56.5,49.2,56.5z
		 M92.1,48.7v2.4l-2,1.2l-2-1.2v-2.4l2-1.2L92.1,48.7z M85,43.7l2-1.2l2,1.2v2.4l-2,1.2l-2-1.2V43.7z M85.9,48.7v2.4l-2,1.2l-2-1.2
		v-2.4l2-1.2L85.9,48.7z M78.8,43.7l2-1.2l2,1.2v2.4l-2,1.2l-2-1.2V43.7z M79.7,48.7v2.4l-2,1.2l-2-1.2v-2.4l2-1.2L79.7,48.7z
		 M72.6,43.7l2-1.2l2,1.2v2.4l-2,1.2l-2-1.2V43.7z M73.5,48.7v2.4l-2,1.2l-2-1.2v-2.4l2-1.2L73.5,48.7z M66.4,43.7l2-1.2l2,1.2v2.4
		l-2,1.2l-2-1.2V43.7z M53.9,43.2c2.4,0,4.3,1.9,4.3,4.3s-1.9,4.3-4.3,4.3s-4.3-1.9-4.3-4.3S51.5,43.2,53.9,43.2z"/>
	<path class="st0" d="M91.5,65.5L97.8,78c0.2,0.3,0.5,0.6,0.8,0.6l13.8,2.1c0.9,0.1,1.3,1.3,0.6,1.9l-10,9.8c-0.3,0.3-0.4,0.6-0.3,1
		l2.3,13.8c0.2,0.9-0.8,1.6-1.6,1.2L91,102c-0.3-0.2-0.7-0.2-1,0l-12.4,6.4c-0.8,0.4-1.8-0.3-1.6-1.2l2.3-13.8
		c0.1-0.4-0.1-0.7-0.3-1l-10-9.8c-0.7-0.7-0.3-1.8,0.6-1.9l13.8-2.1c0.4-0.1,0.7-0.3,0.8-0.6l6.3-12.5
		C89.9,64.7,91.1,64.7,91.5,65.5L91.5,65.5L91.5,65.5z"/>
	<path class="st0" d="M68.1,78.3l13.2-2l1.3-2.6l-0.7-0.4v-2.4l2-1.2l0.5,0.3l0.8-1.6L85,68.3v-2.4l2-1.2l0.1,0.1l0.2-0.3
		c0.6-1.2,1.9-2,3.2-2l0,0c1.4,0,2.6,0.8,3.2,2l5.9,11.7V59.4h-6.4l-0.8,1.3H49.2l-0.8-1.2H42v20.4h6.4l0.8-1.2H67
		C67.3,78.5,67.7,78.4,68.1,78.3L68.1,78.3z M78.8,65.9l2-1.2l2,1.2v2.4l-2,1.2l-2-1.2V65.9z M79.7,70.9v2.4l-2,1.2l-2-1.2v-2.4
		l2-1.2L79.7,70.9z M72.6,65.9l2-1.2l2,1.2v2.4l-2,1.2l-2-1.2V65.9z M73.5,70.9v2.4l-2,1.2l-2-1.2v-2.4l2-1.2L73.5,70.9z M66.4,65.9
		l2-1.2l2,1.2v2.4l-2,1.2l-2-1.2V65.9z M53.9,74c-2.4,0-4.3-1.9-4.3-4.3s1.9-4.3,4.3-4.3s4.3,1.9,4.3,4.3S56.3,74,53.9,74z"/>
	<path class="st0" d="M75.6,93.8l-5.2-5.1v2.1l-2,1.2l-2-1.2v-2.4l2-1.2l1.1,0.7l-3.4-3.4c-0.4-0.4-0.7-0.8-0.8-1.3H49.2L48.4,82H42
		v20.4h6.4l0.8-1.2h25.2L75.6,93.8L75.6,93.8L75.6,93.8z M53.9,96.5c-2.4,0-4.3-1.9-4.3-4.3s1.9-4.3,4.3-4.3s4.3,1.9,4.3,4.3
		S56.3,96.5,53.9,96.5z M71.5,97l-2-1.2v-2.4l2-1.2l2,1.2v2.4L71.5,97z"/>
	<path class="st0" d="M53.9,89.8c-1.3,0-2.4,1.1-2.4,2.4s1.1,2.4,2.4,2.4s2.4-1.1,2.4-2.4C56.2,90.9,55.2,89.8,53.9,89.8z"/>
	<path class="st0" d="M53.9,67.4c-1.3,0-2.4,1.1-2.4,2.4s1.1,2.4,2.4,2.4s2.4-1.1,2.4-2.4C56.2,68.5,55.2,67.4,53.9,67.4z"/>
	<path class="st0" d="M53.9,45.2c-1.3,0-2.4,1.1-2.4,2.4c0,1.3,1.1,2.4,2.4,2.4s2.4-1.1,2.4-2.4C56.2,46.2,55.2,45.2,53.9,45.2z"/>
</g>
</svg>
