<?xml version="1.0" encoding="utf-8"?>
<!-- Generator: Adobe Illustrator 26.2.1, SVG Export Plug-In . SVG Version: 6.00 Build 0)  -->
<svg version="1.1" id="Ebene_1" xmlns="http://www.w3.org/2000/svg" xmlns:xlink="http://www.w3.org/1999/xlink" x="0px" y="0px"
	 viewBox="0 0 70 71" style="enable-background:new 0 0 70 71;" xml:space="preserve">
<style type="text/css">
	.st0{clip-path:url(#SVGID_00000114759283396609280190000004011845292039274398_);}
	.st1{fill:#FFFFFF;}
</style>
<g id="a">
	<g>
		<g>
			<g>
				<defs>
					<rect id="SVGID_1_" y="0.8" width="69.6" height="69.6"/>
				</defs>
				<clipPath id="SVGID_00000026843845708568744150000016587813066762913197_">
					<use xlink:href="#SVGID_1_"  style="overflow:visible;"/>
				</clipPath>
				<g style="clip-path:url(#SVGID_00000026843845708568744150000016587813066762913197_);">
					<path class="st1" d="M17.5,48.8c1.5,0.4,2.4,1,2.4,2.2c0,1.4-1.1,2.3-2.7,2.3c-1.1,0-2.2-0.4-3.1-1.3l1-1.2
						c0.7,0.6,1.4,1,2.2,1c0.6,0,0.9-0.3,0.9-0.7s-0.2-0.6-1.3-0.9c-1.5-0.4-2.4-0.8-2.4-2.3s1.2-2.2,2.6-2.2c0.9,0,2,0.3,2.7,0.9
						L19,47.8c-0.7-0.5-1.4-0.7-1.9-0.7s-0.9,0.3-0.9,0.7C16.1,48.3,16.3,48.5,17.5,48.8z"/>
					<path class="st1" d="M26.4,47.4h-3.6v1.5H26v1.4h-3.2v1.5h3.7v1.4h-5.3V46h5.2L26.4,47.4L26.4,47.4z"/>
					<path class="st1" d="M32.5,50.6l1.8,2.6h-2l-1.6-2.3h-1.1v2.3H28V46h2.8c2.3,0,3.1,0.7,3.1,2.4C33.9,49.6,33.4,50.3,32.5,50.6z
						 M30.8,47.4h-1.2v2.1h1.2c1.2,0,1.4-0.4,1.4-1.1C32.3,47.6,31.9,47.4,30.8,47.4z"/>
					<path class="st1" d="M39.8,46h1.7l-2.9,7.2h-1.4L34.4,46h1.7l1.8,4.6L39.8,46z"/>
					<path class="st1" d="M47.6,47.4H44v1.5h3.2v1.4H44v1.5h3.7v1.4h-5.3V46h5.2L47.6,47.4L47.6,47.4z"/>
					<path class="st1" d="M53.7,50.6l1.8,2.6h-2l-1.6-2.3h-1.1v2.3h-1.6V46H52c2.3,0,3.1,0.7,3.1,2.4C55.1,49.6,54.6,50.3,53.7,50.6
						z M52.1,47.4h-1.2v2.1H52c1.2,0,1.4-0.4,1.4-1.1C53.4,47.6,53,47.4,52.1,47.4z"/>
					<path class="st1" d="M34.8,70.4C15.6,70.4,0,54.8,0,35.6S15.6,0.8,34.8,0.8s34.8,15.6,34.8,34.8S53.9,70.4,34.8,70.4z
						 M34.8,4.7c-17,0-30.9,13.9-30.9,30.9s13.9,30.9,30.9,30.9s30.9-13.9,30.9-30.9S51.8,4.7,34.8,4.7z"/>
					<path class="st1" d="M22.6,17.8c2.2,0,4.1,0.2,5.6,0.8c1.5,0.5,2.6,1.3,3.3,2.4c0.8,1.1,1.1,2.4,1.1,4c0,1-0.2,1.9-0.5,2.7
						c-0.3,0.8-0.8,1.6-1.4,2.2s-1.3,1.2-2.2,1.7l7.2,10.6l-7.5,0.1L23,33.4h-1.7l0.1,8.9h-6.6l-0.2-24.5L22.6,17.8z M22.5,22.8
						h-1.3v5.6h1.2c1,0,1.8-0.2,2.5-0.7c0.6-0.5,1-1.3,1-2.4c0-0.8-0.3-1.4-0.8-1.9C24.6,23,23.7,22.8,22.5,22.8z M57.6,42.1
						l-7.7,0.1l-4.8-7.6l-4.7,7.7h-7.5l8-12.6l-7.7-11.9h7.3l4.5,7.5l4.2-7.6l7.6-0.1l-7.7,12.5L57.6,42.1z"/>
				</g>
			</g>
		</g>
	</g>
</g>
</svg>
