<?xml version="1.0" encoding="utf-8"?>
<!-- Generator: Adobe Illustrator 28.2.0, SVG Export Plug-In . SVG Version: 6.00 Build 0)  -->
<svg version="1.1" id="Ebene_1" xmlns="http://www.w3.org/2000/svg" xmlns:xlink="http://www.w3.org/1999/xlink" x="0px" y="0px"
	 viewBox="0 0 70 70" style="enable-background:new 0 0 70 70;" xml:space="preserve">
<style type="text/css">
	.st0{fill:#FFFFFF;}
</style>
<path class="st0" d="M35,70C15.7,70,0,54.3,0,35S15.7,0,35,0s35,15.7,35,35S54.2,70,35,70z M35,4C17.9,4,4,17.9,4,35
	c0,17.1,13.9,31,31,31c17.1,0,31-13.9,31-31S52.1,4,35,4z"/>
<path class="st0" d="M54.9,32.6V20.7h5.5v12.2c0,2.6-0.7,4.6-2.2,6.1c-1.5,1.5-3.6,2.2-6.5,2.2c-2.8,0-5-0.7-6.4-2.1
	c-1.5-1.4-2.2-3.5-2.2-6.1V20.7h5.5v11.9c0,1.4,0.3,2.5,0.8,3.1c0.5,0.6,1.3,1,2.4,1c1.1,0,1.9-0.3,2.4-1C54.7,35,54.9,34,54.9,32.6
	z"/>
<path class="st0" d="M26.9,41V20.7h7c2.6,0,4.5,0.6,5.8,1.7c1.3,1.1,1.9,2.7,1.9,4.8c0,0.9-0.1,1.8-0.4,2.6
	c-0.3,0.8-0.7,1.6-1.3,2.3c-0.6,0.7-1.4,1.2-2.4,1.6c-1,0.4-2.2,0.6-3.6,0.6h-1.5V41H26.9z M33.8,25.1h-1.4v4.7h1.1
	c0.7,0,1.3-0.2,1.9-0.6c0.5-0.4,0.8-1,0.8-1.9c0-0.6-0.2-1.2-0.6-1.6C35.2,25.3,34.6,25.1,33.8,25.1z"/>
<path class="st0" d="M19.9,33.3h-3.6v-4.2h8.8V40c-1.1,0.4-2.3,0.7-3.6,0.9c-1.3,0.2-2.7,0.3-4.2,0.3c-2,0-3.7-0.4-5.1-1.1
	c-1.5-0.7-2.6-1.9-3.4-3.5c-0.8-1.6-1.2-3.5-1.2-5.9c0-2.1,0.4-4,1.2-5.5c0.8-1.5,2-2.7,3.6-3.6c1.6-0.9,3.5-1.3,5.8-1.3
	c1.3,0,2.5,0.1,3.6,0.4c1.1,0.2,2.1,0.5,3,0.9L22.9,26c-1.4-0.7-3-1.1-4.8-1.1c-1.2,0-2.2,0.3-2.9,0.8c-0.7,0.6-1.3,1.3-1.6,2.2
	c-0.3,0.9-0.5,1.9-0.5,3c0,1.9,0.4,3.3,1.2,4.3c0.8,1,1.9,1.5,3.4,1.5c0.3,0,0.7,0,1.2-0.1c0.5,0,0.8-0.1,1.1-0.2V33.3z"/>
<path class="st0" d="M55.9,52.7L54,50.1c0.4-0.2,0.7-0.4,0.9-0.7c0.3-0.4,0.4-0.9,0.4-1.5c0-0.8-0.2-1.4-0.8-1.8
	c-0.5-0.4-1.3-0.6-2.3-0.6h-2.7v7.2h1.6v-2.3h1.2l1.6,2.3H55.9z M52.4,46.9c0.6,0,1,0.1,1.2,0.2l0,0c0.2,0.1,0.3,0.3,0.3,0.7
	c0,0.4-0.1,0.7-0.3,0.8C53.3,48.9,53,49,52.3,49h-1.2v-2H52.4z"/>
<path class="st0" d="M48,47v-1.5h-5.2v7.2h5.3v-1.5h-3.7v-1.4h3.3v-1.4h-3.3V47H48z"/>
<path class="st0" d="M34.6,45.5l2.9,7.2H39l2.9-7.2h-1.7l-2,4.8l-2-4.8H34.6z"/>
<path class="st0" d="M34.4,52.7l-1.9-2.6c0.4-0.2,0.7-0.4,0.9-0.7c0.3-0.4,0.4-0.9,0.4-1.5c0-0.8-0.2-1.4-0.8-1.8
	c-0.5-0.4-1.3-0.6-2.3-0.6h-2.7v7.2h1.6v-2.3h1.2l1.6,2.3H34.4z M30.9,46.9c0.6,0,1,0.1,1.2,0.2l0,0c0.2,0.1,0.3,0.3,0.3,0.7
	c0,0.4-0.1,0.7-0.3,0.8c-0.2,0.1-0.6,0.2-1.2,0.2h-1.2v-2H30.9z"/>
<path class="st0" d="M26.5,47v-1.5h-5.2v7.2h5.3v-1.5h-3.7v-1.4h3.3v-1.4h-3.3V47H26.5z"/>
<path class="st0" d="M16.3,47.9L16.3,47.9L16.3,47.9c-0.2-0.1-0.2-0.2-0.2-0.5c0-0.2,0.1-0.3,0.2-0.4l0,0c0.2-0.1,0.4-0.2,0.7-0.2
	c0.3,0,0.6,0.1,0.9,0.2l0,0c0.3,0.1,0.6,0.2,0.7,0.4l0.2,0.2l0.9-1.2l-0.1-0.1c-0.7-0.6-1.6-0.9-2.5-0.9c-0.7,0-1.3,0.2-1.8,0.6
	c-0.5,0.4-0.7,0.9-0.7,1.6c0,0.7,0.2,1.2,0.7,1.6c0.4,0.3,1,0.6,1.9,0.8c0.5,0.1,0.8,0.2,1,0.4l0,0c0.2,0.1,0.2,0.3,0.2,0.5
	c0,0.2-0.1,0.3-0.3,0.5c-0.2,0.1-0.4,0.2-0.8,0.2c-0.7,0-1.3-0.3-2-0.9l-0.2-0.1l-1,1.2l0.1,0.1c0.9,0.8,1.9,1.2,3,1.2
	c0.8,0,1.4-0.2,1.9-0.6c0.5-0.4,0.8-1,0.8-1.6c0-0.6-0.2-1.1-0.6-1.5c-0.4-0.3-0.9-0.6-1.7-0.8c-0.3-0.1-0.6-0.2-0.8-0.2
	C16.5,48,16.4,47.9,16.3,47.9z"/>
</svg>
